<?xml version="1.0" encoding="UTF-8"?>
<svg xmlns="http://www.w3.org/2000/svg" version="1.1" viewBox="0 0 99.5 103.9">
  <defs>
    <style>
      .cls-1 {
        fill: #adafb0;
      }

      .cls-2 {
        fill: #2e3139;
      }

      .cls-3 {
        fill: #fdfdfd;
      }
    </style>
  </defs>
  <!-- Generator: Adobe Illustrator 28.6.0, SVG Export Plug-In . SVG Version: 1.2.0 Build 709)  -->
  <g>
    <g id="Capa_1">
      <path class="cls-1" d="M1009,450.9c-135.2,0-270.4,0-405.6.1-6.4,0-6.5,0-6.4-6.4,0-21,.2-42,.3-62.9,8.3,1.2,16.5,2.4,24.8,3.6.4,0,.6.7,1,1-5.6,6.2-5.1,9,2.4,12.6.5.2.9.4,1.3.7,1.9,1.1,4.3,2.1,2.8,4.8-1.3,2.3-3.7,1.8-5.7.7-.4-.2-.8-.5-1.3-.8-1.5-.8-2.6-.1-3.3,1.2-.7,1.4.4,2.1,1.5,2.7,3.2,1.8,6.5,2.4,10,.6,2.4-1.2,4-3.2,3.8-5.9-.3-3.7-2.8-5.9-6.1-7-.3-.1-.6-.2-.9-.3-1.5-.8-3.9-1.2-3.3-3.6.6-2.6,3-2.6,4.9-1.9,3.1,1.1,4,0,3.9-2.8,2.2,0,4.5-.4,6.2,1.6,0,2.6,0,5.2-3.7,5.2-.8,0-1.1.7-1.1,1.4,0,.7.3,1.4,1.1,1.4,4.4-.2,3.6,2.6,3.3,5.4-.5,4.7,1.7,7.4,5.7,7.7,1.2,0,2.9.6,3.3-1.3.4-1.7-.6-2.3-2.2-2.5-3.8-.4-2.2-3.4-2.5-5.4-.3-2.2,0-4,3-3.8.8,0,1.7,0,1.8-1.2.1-1.4-.8-1.8-1.9-1.7-3.8.1-3.1-2.5-3-4.8,4.1.4,8.2.9,12.4,1.1,4.4.2,7.3-1.9,8.1-6.4.7-4.3-1.6-7.6-6.1-8.9-1.5-.4-3.4,0-4.4-1.7l35.1-.3c1.1,4.3,1.8,8.6,1.2,13.1-3.1-.2-4.4,1.1-4.2,4.4.3,4.6,0,9.3.1,13.9,0,1.9-1.5,5.1,1.7,5.3,3.9.2,1.6-3.5,2.4-5.3.1-.2.4-.4.7-.6,1.2.4,1.9,1.2,2.2,2.5.7,5.2,1.4,10.4,2.1,15.6-5,2-4.1,7.4-6.4,11-.6.9-1.3,2.2.2,2.9,1.3.6,2.1-.5,2.7-1.5,2.2-3.6,4.4-2.6,6.3.2.8,1.1,1.5,1.9,2.7,1.4,1.9-.7.4-1.9.3-2.8-.3-1.6-.7-3.2-1.1-4.8,1-.1,2-.2,3-.3,0,.3,0,.7.1,1,.5,2.3-1.2,6.3,1.2,6.5,3.2.4,1.2-3.5,1.8-5.4.4-1.3,1-2.1,2.4-2,1.6,0,1.7,1.3,1.8,2.5,0,1.7,0,3.3.1,5,0,.7.5,1.2,1.2,1.3.8.1,1.2-.3,1.5-1,1.3-3.1-.4-9.4-3.2-11.4.2-4.3,0-8.6-.4-12.9-1.2-12.9-4-25.5-4.2-38.5,22.5,0,45.1,0,67.6,0,.5,1.6.9,3.2,1.4,4.8,4.7,14.7,8,29.8,13.2,44.4,1.1,3.2,3,5.6,6.6,5.8,0,1.1,0,2.3.3,3.4.4,1.6-1.1,4.4,1.6,4.5,3.3.1,1.2-3.1,2.1-4.6.1-.2.4-.3.5-.4,2.4,1,.8,5.8,4.5,4.9,2.5-.6,1.4-4.6,4.1-6.1,0,1.4,0,2.6,0,3.7,0,1.1-.2,2.6,1.5,2.6,1.7,0,1.3-1.6,1.3-2.7,0-2.8,0-5.7,0-8.5,0-1.2,0-2.4-1.7-2.5-1.3-.1-2.3.3-2.8,1.5-.9,2.3-1.8,4.6-2.8,7-1.5-1.3-2.1-2.7-1.7-4.5.9-2.9,2.1-5.6,1.1-9-4.5-14.7-8.6-29.5-12.9-44.2,73.6,0,147.2,0,220.8.1v78ZM720.4,428.4c-1.4.5-2.8.9-4.1,1.4-1.5.6-2.4,1.8-2.1,3.5.3,1.7,1.6,2.6,3.3,2.4,5-.6,10-.1,15.1,0,1.9,0,3.1-.9,3.4-2.9.2-1.8-.7-2.6-2.3-3.3-1.1-.5-3.1,0-3.3-2,1.6-1.1,2.7.5,4,.2.4,0,1-.5,1.1-.8,0-.4-.2-1-.5-1.2-2-1.3-4.2-1.1-6.2-.5-1.2.4-2.3,1.5-2.1,3,.3,2.2,2.1,2.8,3.9,3.3.8.3,2.1-.2,2.3,1.4-2,2-3.8-1.4-5.4-.4-3.6,2.3-3.3-.1-3.4-2.4,0-1,.1-2.1-.2-3-1.1-3.3-4-2.3-6.4-2.3-1,0-2.4.4-2.1,1.5.8,2.5,3.3.3,4.7,1.4.1,0,.2.2.5.5ZM747,426.9c1.8,1.4,3.9-.2,5.6,1.4-1.6.6-3.2,1-4.6,1.7-1.3.6-2,1.7-1.8,3.2.2,1.5,1.1,2.5,2.6,2.5,5.3,0,10.7,0,16,0,1.7,0,2.8-1,3-2.7.3-1.7-.5-2.7-2.1-3.4-1.2-.5-3.1,0-3.6-1.9,1.5-1.9,3.8,1.6,5.4-1.1-2.8-2.1-6.4-3.2-8.2,0-3.1,5.3,4,3.7,5.5,6.4-2,1.8-3.8-.8-5-.2-4.9,2.4-4-1.1-4.1-3.7,0-1.8-.3-3.6-2.3-3.8-2.2-.3-4.9-1.2-6.6,1.8ZM666,401.5c0-4.8-3.7-8.5-8.6-8.4-4.3,0-8.3,4.2-8.3,8.4,0,4.5,4,8.4,8.8,8.3,4.6,0,8-3.5,8.1-8.3ZM676.8,409.9c.8-.3,2.1-.5,3.3-1.1,1.2-.6,3.3-1.1,2.5-3-.7-1.6-2.3-2.3-4.1-.9-2.1,1.6-4.1,1-5.7-.8-1.3-1.5-1.4-3.5-.2-5.1,1.4-1.9,3.4-2.6,5.6-1.2,1.6,1.1,2.9.8,3.6-1,.7-1.6-.6-2.4-1.9-3-3.5-1.8-6.8-1.3-9.7,1.3-2.6,2.4-3.9,5.3-2.5,8.9,1.5,4,4.5,5.4,9,5.8ZM659.7,428.5c0-1.3,0-2.6,0-4,0-1.2.5-2.9-1.2-3.4-1.9-.5-2,1.1-2.3,2.4-.4,1.6-1.7,1.4-2.8,1.4-4.1,0-5.6,2.3-5.3,6,.4,5.3,4.3,4.5,8,4.7,4.9.3,3.2-2.9,3.5-5.2,0-.6,0-1.3,0-2ZM834.6,428.2c-.7.4-1,.6-1.3.7-2.2.4-4.3,1.1-4.7,3.6-.2,1.4.5,2.8,1.9,3.1,2.9.4,6.4,1.1,8.6-.5,1-.8-.2-4.8-.9-7.3-.5-1.9-1.7-3.6-4-3.9-2.1-.3-4.2.6-4.4,2.3-.3,2.9,2.3,1,3.6,1.5.3.1.6.3,1.2.6ZM822.5,435.8c-1.3-2.4-1.6-4.6-1.6-6.9.1-3.4-2.3-4.1-5-4.1-1.4,0-3.8-.4-3.6,1.5.3,2.9,3.6,0,4.9,1.8-.7,1.2-2.1.7-3.1,1.2-1.8.8-3.4,1.7-2.9,4,.5,2.3,2.4,2.5,4.3,2.4,2.1,0,4.3,0,7,0ZM639.1,431.9c1.2-1.5,2.7-.8,3.9-1.1,1.3-.3,3.4.9,3.6-1.4.2-1.9-1.2-3.5-3.1-4.1-2.5-.8-5-.7-6.8,1.6-1.4,1.8-1.8,3.8-.6,6,1.6,2.9,4.1,3.1,6.9,2.8,1.2-.1,2.6-.4,2.6-1.8-.1-1.9-1.6-1-2.7-.9-1.3.2-2.7.4-3.8-1.2ZM781.4,428.3c-2,1.8-7.4.3-6.1,5.2,1.2,4.5,5.5,1.4,8.2,2.2.3,0,.7,0,1,0,.8,0,1.4-.7,1.1-1.3-1.2-2.2-.3-4.7-1.1-6.8-.7-2-2.3-2.7-4.3-2.7-2.2,0-2.3,0-3.6,2.4,1.4,1.2,3.6-1.7,4.8,1ZM613.1,428.7c0,5.8,5,9,10.2,6.4,1-.5,2.5-.9,2-2.4-.5-1.5-1.9-.9-2.9-.4-2.1,1-4.3,1.3-5.8-.8-1.1-1.6-1.1-3.6,0-5.2,1.4-2.3,3.6-1.9,5.7-1,.9.4,2,.9,2.6-.3.6-1.4-.7-2-1.7-2.5-4.9-2.5-10,.7-10,6.3ZM853,428c0,1.8,0,3.6,0,5.5,0,1,0,2.2,1.4,2.2,1.3,0,1.3-1.1,1.5-2.1.5-2-1.4-5.6,2.1-5.5,3.5,0,1.5,3.6,2,5.6.3,1,.2,2.1,1.6,2,1.3,0,1.4-1.2,1.3-2.2-.4-3.7,1.9-9.1-5.3-8.6-.9,0-1.5-.5-1.7-1.4-.2-1.1-.1-2.6-1.8-2.3-1.6.3-1,1.8-1.1,2.9,0,1.3,0,2.6,0,4ZM846.4,435.9c1.6-.1,3.9.2,3.9-1.9,0-2-2-1-3.1-1-2.3.2-3.5-.7-3.3-3.1.2-2.4,1.8-2.5,3.6-1.9,1.2.4,2.4.8,2.8-.7.4-1.5-1.1-1.9-2.2-2.2-2.1-.5-4.3-.6-6,1.2-1.8,1.9-1.7,4.3-1,6.5.7,2.3,2.7,3.2,5.1,3ZM617.1,401.6h0c0-2,0-3.9,0-5.9,0-1.5-.4-2.6-2.2-2.5-1.5,0-1.9,1.1-1.9,2.3,0,3.9,0,7.9,0,11.8,0,1.3.5,2.2,2,2.3,1.9,0,2.1-1.2,2.1-2.6,0-1.8,0-3.6,0-5.4ZM674.9,425.8c-1.6-.7-3.3-.9-3.6-1.6-2-4.6-2.7-1.5-3.7.5-.6,1.2,1,9.9,2,10.5.7.4,1.5.5,2.3.6.8,0,1.8.2,2.2-.7.4-.9-.4-1.3-1.1-1.8-3.4-2.6-3-5.2,1.8-7.5ZM740.3,421.9c-.4.3-.8.5-1.1.8-1.3,1.3-.6,11.3,1,12.4,1.3.9,3.1,1.3,4.1.2,1.5-1.7-.9-1.8-1.6-2.6-1.4-1.6-1.2-3.6-.2-5.4.4-.7,3.2-.8,1.5-1.8-1.6-.9-1.9-3-3.8-3.5ZM631.4,425c-4,0-4,0-4.1,3.7,0,1.5,0,3,0,4.5,0,1.1-.1,2.5,1.6,2.4,1.4,0,1.2-1.3,1.3-2.3.3-2-.2-4.4,2.3-5.5,1.1-.5,2.6-.7,1.9-2.2-.6-1.2-2.1-.5-3-.5ZM823.8,428.3c.9,2.4-1.1,7,1.4,6.9,3.4-.2,1.4-4.6,1.5-7.1,0-2.3,1.7-6.7-1.4-6.6-2.8,0-.5,4.5-1.5,6.8ZM868.8,429.7c-.5-1.4,1.2-4.5-1.7-4.6-3.1-.1-1.5,2.9-1.9,4.6-.2.8-.1,1.6,0,2.5.1,1.4-.6,3.3,1.7,3.5,2.3.1,1.8-1.9,1.9-3.2,0-.8,0-1.6,0-2.7ZM662,430.7c1.2,1.4-1.2,4.7,1.6,4.7,2.4,0,1.2-3.3,1.2-5,0-1.7,1.2-5-1.3-5-2.5,0-.8,3.3-1.5,5.3ZM773,430.5c-.6-1.8.9-5.1-1.3-5.1-3.1,0-1.4,3.4-1.5,5.1,0,1.7-1.3,4.9,1.3,4.9,2.5,0,.8-3.2,1.5-4.9ZM617.6,388.7c-.6-1.5-1.1-3-3.1-2.7-1.7.3-2.6,1.5-2.4,3.2.1,1.5,1.1,2.5,2.6,2.4,1.6-.2,2.6-1.2,2.9-2.9Z"/>
      <path class="cls-3" d="M623,386.3c3.4-1,6.7-.5,9.9.9.1,2.9-.8,4-3.9,2.8-1.9-.7-4.3-.7-4.9,1.9-.6,2.4,1.8,2.8,3.3,3.6.3.2.6.2.9.3,3.4,1.2,5.9,3.3,6.1,7,.2,2.8-1.5,4.7-3.8,5.9-3.4,1.8-6.8,1.2-10-.6-1-.6-2.2-1.2-1.5-2.7.7-1.3,1.7-2,3.3-1.2.4.2.8.6,1.3.8,2.1,1.1,4.4,1.6,5.7-.7,1.6-2.7-.9-3.7-2.8-4.8-.4-.2-.9-.5-1.3-.7-7.5-3.6-8.1-6.4-2.4-12.6Z"/>
      <path class="cls-3" d="M689.2,385.9c.9,2.1.6,4.3.7,6.5-.9,1.4-1.4,3,0,4.3.8.8,1.7.3,2.2-.7,2-2.3,4.4-3.4,7.5-2.3,0,.3.2.6.1.8-1.4,2.7-6.6,3.4-5.1,7.2,1.1,2.7,4.5,4.5,7.2,7-4.9,2.6-7-1-9.7-2.6-.3-1.2-1-2-2.2-2.5-.2.2-.5.3-.7.6-.8,1.8,1.5,5.5-2.4,5.3-3.2-.2-1.6-3.5-1.7-5.3-.2-4.6.2-9.3-.1-13.9-.2-3.3,1.1-4.6,4.2-4.4Z"/>
      <path class="cls-3" d="M720.4,428.4c-.3-.3-.4-.4-.5-.5-1.4-1.1-3.9,1.1-4.7-1.4-.3-1.1,1.1-1.5,2.1-1.5,2.4,0,5.2-1,6.4,2.3.3.9.2,2,.2,3,0,2.3-.3,4.8,3.4,2.4,1.5-1,3.4,2.4,5.4.4-.1-1.6-1.4-1.1-2.3-1.4-1.8-.6-3.6-1.2-3.9-3.3-.2-1.5.9-2.6,2.1-3,2.1-.7,4.3-.8,6.2.5.3.2.6.9.5,1.2,0,.3-.7.7-1.1.8-1.3.3-2.4-1.3-4-.2.3,2,2.3,1.5,3.3,2,1.6.7,2.5,1.5,2.3,3.3-.2,2-1.5,3-3.4,2.9-5-.1-10-.6-15.1,0-1.7.2-2.9-.7-3.3-2.4-.3-1.7.6-2.9,2.1-3.5,1.3-.5,2.7-.9,4.1-1.4Z"/>
      <path class="cls-3" d="M747,426.9c1.7-2.9,4.3-2.1,6.6-1.8,2,.3,2.3,2.1,2.3,3.8,0,2.6-.9,6.1,4.1,3.7,1.2-.6,3,2,5,.2-1.5-2.7-8.6-1.1-5.5-6.4,1.8-3.1,5.4-2,8.2,0-1.6,2.6-3.9-.8-5.4,1.1.4,1.9,2.4,1.4,3.6,1.9,1.6.7,2.4,1.7,2.1,3.4-.3,1.7-1.4,2.7-3,2.7-5.3,0-10.7,0-16,0-1.5,0-2.4-1.1-2.6-2.5-.2-1.5.4-2.6,1.8-3.2,1.5-.6,3-1.1,4.6-1.7-1.6-1.6-3.8,0-5.6-1.4Z"/>
      <path class="cls-3" d="M666,401.5c0,4.7-3.5,8.3-8.1,8.3-4.7,0-8.8-3.8-8.8-8.3,0-4.2,4.1-8.3,8.3-8.4,4.8,0,8.6,3.6,8.6,8.4ZM657.6,396.9c-2.6.5-4.4,2-4.3,4.7.1,2.5,1.5,4.4,4.4,4.3,2.9,0,4.2-2.1,4.2-4.6,0-2.5-1.5-4.3-4.3-4.4Z"/>
      <path class="cls-3" d="M792.9,427.8c0-1.1,0-2.3,0-3.4,0-1.1-.3-2.5,1.5-2.4,1.2,0,2.7-.7,3.5,1,.5,1.2.8,2.5,2.1,3.2-.4,1.8.2,3.2,1.7,4.5,1-2.4,1.8-4.7,2.8-7,.5-1.2,1.5-1.6,2.8-1.5,1.6.1,1.7,1.3,1.7,2.5,0,2.8,0,5.7,0,8.5,0,1.1.3,2.6-1.3,2.7-1.7,0-1.5-1.4-1.5-2.6,0-1.1,0-2.3,0-3.7-2.8,1.5-1.6,5.5-4.1,6.1-3.7.9-2.1-3.9-4.5-4.9-.1,0-.4.2-.5.4-.9,1.5,1.2,4.7-2.1,4.6-2.8,0-1.2-2.9-1.6-4.5-.3-1.1-.2-2.2-.3-3.4ZM797,427.3c-.1-.3-.3-.6-.4-.9-.2.3-.5.6-.5.8,0,.3.4.6.6.9.1-.3.2-.6.3-.9Z"/>
      <path class="cls-3" d="M676.8,409.9c-4.4-.3-7.5-1.8-9-5.8-1.4-3.7-.1-6.5,2.5-8.9,2.8-2.6,6.1-3.1,9.7-1.3,1.2.6,2.5,1.4,1.9,3-.7,1.7-2,2-3.6,1-2.2-1.5-4.2-.8-5.6,1.2-1.2,1.6-1.1,3.6.2,5.1,1.6,1.9,3.6,2.5,5.7.8,1.8-1.4,3.4-.7,4.1.9.8,1.9-1.2,2.4-2.5,3-1.2.6-2.5.8-3.3,1.1Z"/>
      <path class="cls-3" d="M639.1,388.8c1.3,0,2.6.2,3.9.3-.1,2.3-.9,4.9,3,4.8,1.1,0,2,.4,1.9,1.7-.1,1.1-1,1.3-1.8,1.2-2.9-.3-3.4,1.5-3,3.8.3,2-1.2,5.1,2.5,5.4,1.6.2,2.6.8,2.2,2.5-.4,1.8-2.1,1.4-3.3,1.3-4-.3-6.2-3-5.7-7.7.3-2.8,1.1-5.5-3.3-5.4-.8,0-1.1-.6-1.1-1.4,0-.7.3-1.4,1.1-1.4,3.7,0,3.6-2.6,3.7-5.2Z"/>
      <path class="cls-3" d="M659.7,428.5c0,.7,0,1.3,0,2-.3,2.2,1.4,5.5-3.5,5.2-3.7-.3-7.6.6-8-4.7-.3-3.7,1.2-6.1,5.3-6,1.1,0,2.4.2,2.8-1.4.3-1.3.3-3,2.3-2.4,1.7.5,1.1,2.2,1.2,3.4,0,1.3,0,2.6,0,4ZM656.3,430.7c0-1.7-.4-3-2.4-3.1-1.7,0-2.9.6-3,2.5-.1,1.7.6,2.9,2.4,3,1.7.1,2.9-.5,2.9-2.4Z"/>
      <path class="cls-3" d="M694.2,421.7c3.1,1,2.3,4.9,4.7,6.4.4,1.6.8,3.2,1.1,4.8.2.9,1.7,2.2-.3,2.8-1.3.4-1.9-.3-2.7-1.4-1.9-2.8-4.1-3.8-6.3-.2-.6,1.1-1.4,2.1-2.7,1.5-1.5-.7-.8-2.1-.2-2.9,2.3-3.5,1.4-9,6.4-11Z"/>
      <path class="cls-3" d="M834.6,428.2c-.7-.3-.9-.4-1.2-.6-1.2-.5-3.9,1.5-3.6-1.5.2-1.7,2.4-2.6,4.4-2.3,2.3.3,3.5,1.9,4,3.9.6,2.5,1.9,6.5.9,7.3-2.2,1.6-5.7.9-8.6.5-1.5-.2-2.1-1.7-1.9-3.1.4-2.6,2.5-3.3,4.7-3.6.3,0,.6-.3,1.3-.7Z"/>
      <path class="cls-3" d="M822.5,435.8c-2.7,0-4.8,0-7,0-1.9,0-3.8,0-4.3-2.4-.5-2.3,1.1-3.2,2.9-4,1-.5,2.4,0,3.1-1.2-1.3-1.8-4.6,1.1-4.9-1.8-.2-1.9,2.2-1.5,3.6-1.5,2.7,0,5.1.6,5,4.1,0,2.3.3,4.4,1.6,6.9Z"/>
      <path class="cls-3" d="M639.1,431.9c1.1,1.6,2.5,1.3,3.8,1.2,1.1-.2,2.5-1,2.7.9,0,1.4-1.4,1.7-2.6,1.8-2.8.3-5.3,0-6.9-2.8-1.2-2.2-.8-4.2.6-6,1.8-2.3,4.3-2.4,6.8-1.6,1.9.6,3.2,2.1,3.1,4.1-.2,2.3-2.3,1.1-3.6,1.4-1.2.3-2.6-.4-3.9,1.1Z"/>
      <path class="cls-3" d="M781.4,428.3c-1.3-2.7-3.4.3-4.8-1,1.4-2.4,1.5-2.4,3.6-2.4,2,0,3.6.7,4.3,2.7.8,2.2-.1,4.6,1.1,6.8.3.6-.3,1.2-1.1,1.3-.3,0-.7.1-1,0-2.7-.9-7,2.2-8.2-2.2-1.3-4.9,4.1-3.4,6.1-5.2Z"/>
      <path class="cls-3" d="M613.1,428.7c0-5.6,5.1-8.7,10-6.3,1,.5,2.3,1.1,1.7,2.5-.5,1.2-1.6.7-2.6.3-2.1-.9-4.3-1.2-5.7,1-1,1.6-1,3.6,0,5.2,1.5,2.1,3.7,1.8,5.8.8,1.1-.5,2.4-1.1,2.9.4.5,1.4-1,1.9-2,2.4-5.2,2.6-10.3-.6-10.2-6.4Z"/>
      <path class="cls-3" d="M853,428c0-1.3,0-2.7,0-4,0-1.1-.5-2.6,1.1-2.9,1.7-.3,1.6,1.2,1.8,2.3.2.9.8,1.5,1.7,1.4,7.2-.4,4.9,4.9,5.3,8.6.1,1,0,2.1-1.3,2.2-1.4,0-1.3-1.1-1.6-2-.5-2,1.5-5.5-2-5.6-3.5,0-1.6,3.5-2.1,5.5-.2,1-.2,2.1-1.5,2.1-1.3,0-1.4-1.2-1.4-2.2,0-1.8,0-3.6,0-5.5Z"/>
      <path class="cls-3" d="M701.9,427.8c0-1.7,0-3.6,2.6-2.7,1.6.5,2.8-.4,4.2-.7,2.8,1.9,4.5,8.3,3.2,11.4-.3.7-.7,1.1-1.5,1-.7-.1-1.2-.6-1.2-1.3,0-1.6,0-3.3-.1-5,0-1.2-.2-2.4-1.8-2.5-1.4,0-2,.7-2.4,2-.6,1.9,1.4,5.8-1.8,5.4-2.4-.3-.7-4.3-1.2-6.5,0-.3,0-.7-.1-1Z"/>
      <path class="cls-3" d="M846.4,435.9c-2.4.2-4.4-.7-5.1-3-.7-2.2-.9-4.6,1-6.5,1.7-1.8,3.9-1.7,6-1.2,1,.3,2.5.7,2.2,2.2-.4,1.5-1.7,1.1-2.8.7-1.8-.6-3.4-.5-3.6,1.9-.2,2.4.9,3.3,3.3,3.1,1.1,0,3.2-1,3.1,1,0,2.1-2.4,1.8-3.9,1.9Z"/>
      <path class="cls-3" d="M617.1,401.6c0,1.8,0,3.6,0,5.4,0,1.4-.2,2.7-2.1,2.6-1.4,0-2-1-2-2.3,0-3.9,0-7.9,0-11.8,0-1.3.3-2.3,1.9-2.3,1.8,0,2.2,1,2.2,2.5,0,2,0,3.9,0,5.9h0Z"/>
      <path class="cls-3" d="M674.9,425.8c-4.8,2.2-5.2,4.9-1.8,7.5.7.5,1.6.9,1.1,1.8-.4.9-1.4.8-2.2.7-.8,0-1.7-.2-2.3-.6-1.1-.6-2.7-9.3-2-10.5,1-1.9,1.7-5.1,3.7-.5.3.7,1.9.9,3.6,1.6Z"/>
      <path class="cls-3" d="M740.3,421.9c1.9.5,2.1,2.6,3.8,3.5,1.6,1-1.1,1-1.5,1.8-1.1,1.8-1.2,3.8.2,5.4.7.9,3,.9,1.6,2.6-1,1.2-2.8.7-4.1-.2-1.5-1.1-2.3-11.1-1-12.4.3-.3.7-.6,1.1-.8Z"/>
      <path class="cls-3" d="M631.4,425c.9,0,2.4-.7,3,.5.7,1.5-.8,1.8-1.9,2.2-2.5,1.1-2,3.5-2.3,5.5-.1.9,0,2.2-1.3,2.3-1.7.1-1.6-1.3-1.6-2.4,0-1.5,0-3,0-4.5.1-3.7.2-3.7,4.1-3.7Z"/>
      <path class="cls-3" d="M823.8,428.3c1-2.3-1.3-6.8,1.5-6.8,3.1,0,1.5,4.3,1.4,6.6-.1,2.5,2,6.9-1.5,7.1-2.5.1-.5-4.5-1.4-6.9Z"/>
      <path class="cls-3" d="M868.8,429.7c0,1.1,0,1.9,0,2.7-.1,1.4.4,3.4-1.9,3.2-2.2-.1-1.5-2.1-1.7-3.5,0-.8-.2-1.7,0-2.5.4-1.7-1.2-4.7,1.9-4.6,2.9.1,1.2,3.2,1.7,4.6Z"/>
      <path class="cls-3" d="M662,430.7c.8-2-.9-5.3,1.5-5.3,2.5,0,1.3,3.2,1.3,5,0,1.8,1.2,5-1.2,5-2.8,0-.4-3.4-1.6-4.7Z"/>
      <path class="cls-3" d="M773,430.5c-.7,1.7,1,4.9-1.5,4.9-2.6,0-1.3-3.2-1.3-4.9,0-1.8-1.7-5.1,1.5-5.1,2.2,0,.8,3.3,1.3,5.1Z"/>
      <path class="cls-3" d="M617.6,388.7c-.2,1.6-1.2,2.7-2.9,2.9-1.6.2-2.5-.9-2.6-2.4-.2-1.7.7-2.9,2.4-3.2,1.9-.3,2.5,1.2,3.1,2.7Z"/>
      <path class="cls-1" d="M692.1,395.9c-.5,1-1.5,1.5-2.2.7-1.3-1.3-.8-2.9,0-4.3,1.5.7.5,3,2.2,3.6Z"/>
      <path class="cls-1" d="M703.9,388.5c-.1.1-.2.2-.4.4-.1-.2-.3-.4-.3-.7,0,0,.2-.2.3-.3.1.2.2.4.4.6Z"/>
      <path class="cls-1" d="M657.6,396.9c2.8.1,4.3,2,4.3,4.4,0,2.5-1.3,4.5-4.2,4.6-2.9,0-4.3-1.8-4.4-4.3-.1-2.7,1.7-4.1,4.3-4.7Z"/>
      <path class="cls-1" d="M797,427.3c-.1.3-.2.6-.3.9-.2-.3-.5-.6-.6-.9,0-.2.3-.5.5-.8.1.3.3.6.4.9Z"/>
      <path class="cls-1" d="M656.3,430.7c0,2-1.2,2.6-2.9,2.4-1.9-.1-2.5-1.3-2.4-3,.1-1.9,1.2-2.6,3-2.5,2,.1,2.4,1.4,2.4,3.1Z"/>
      <g>
        <path class="cls-2" d="M75.6,95.6c-2.1-.3-4.2-.6-6.2-1-1-.2-2-.3-3-.5-2.3-.4-4-2.2-4.3-4.5-.3-2.3-.6-4.7-.9-7.1,0-.4.1-.6.4-.9h.1c0-.6,0-1,.4-1.4,3-3.1,5-6.7,5.7-11,.2-1.4.8-2.4,1.9-3.2,2-1.6,3.1-3.7,3.4-6.3.3-2.6-1.6-5.2-4-5.7-.9-.2-1.6.2-1.7.9-.2.7.2,1.3,1.1,1.5,1.4.4,2.3,1.6,2.2,3,0,.8-.2,1.5-.6,2.3-.8,1.6-2.1,2.7-3.5,3.8-.6.5-.9,1-.9,1.8,0,.8-.2,1.6-.3,2.3-1.4,5.5-4.7,9.6-9.4,12.7-1.7,1.1-3.5,1.5-5.5,1.5-2.9,0-5.4-1.2-7.6-3-4.1-3.4-6.9-7.6-7.6-13-.2-1.2-.5-2.1-1.5-2.7-.1,0-.3-.2-.4-.3-1.4-1.2-2.6-2.5-3-4.4-.5-2.1.2-3.4,2.3-4,.6-.2.9-.7.9-1.3,0-.7-.5-1-1.1-1.1-.4,0-.7,0-1,.1-2.4.8-3.9,3.3-3.6,5.8.3,2.5,1.5,4.6,3.4,6.1,1.1.9,1.6,1.8,1.8,3.2.8,4.2,2.8,7.9,5.7,11,.3.3.5.5.4,1-.3,2.3-.6,4.7-.9,7.1-.3,2.3-2,4-4.3,4.5-1,.2-2,.3-3,.5-2.1.3-4.2.6-6.2,1-.8.1-1.2.7-1.2,1.4,0,.7.6,1.1,1.5,1.1.2,0,.4,0,.6,0,2.8-.4,5.6-.8,8.4-1.3,2.8-.4,4.8-1.9,6.1-4.4.6-1.3.7-2.7.9-4.1.2-1.3.3-2.6.5-4,5.8,4.3,11.5,4.5,17.2.6l.5.7c.2,1.4.3,2.7.5,4,.2,1.4.3,2.8.9,4.1,1.3,2.5,3.3,4,6.1,4.4,2.8.4,5.6.9,8.4,1.3.2,0,.4,0,.6,0,.8,0,1.4-.4,1.5-1.1,0-.7-.4-1.3-1.2-1.4Z"/>
        <path class="cls-2" d="M15,49.1c0-2.1.8-3.8,2.6-5,2-1.4,4-2.8,6-4.3.8-.6,1-1.3.5-2-.5-.6-1.2-.6-2,0-2,1.4-4,2.9-6.1,4.3-2.4,1.7-3.6,4-3.6,6.9,0,3.9,0,7.9,0,11.8,0,.5,0,1.1-.2,1.6-3.1,10.5-6.1,21-9.2,31.6-.7,2.4-1.4,4.8-2.1,7.1-.3.9.3,1.7,1.3,1.7.7,0,1-.5,1.2-1.2,3.5-11.9,7-23.8,10.4-35.8.5-1.7,1.2-3.4,1.1-5.3,0-3.8,0-7.7,0-11.5Z"/>
        <path class="cls-2" d="M23.2,59c-.4-2.8-.8-5.5-1.2-8.3-.1-.8,0-1.5.7-2.1.7-.7.7-1.4.2-1.9-.5-.5-1.3-.5-1.9.1-1.2,1.1-1.6,2.5-1.4,4.1.3,2.2.7,4.4.9,6.6.1,1.1.5,2.3.3,3.4-.1,1.1-.3,2.2-.4,3.3-1.1,8.9-2.1,17.7-3.2,26.6-.4,3.6-.9,7.1-1.3,10.7,0,.8.4,1.4,1.1,1.4.8,0,1.3-.4,1.4-1.3.5-4,1-7.9,1.4-11.9,1-8.5,2-16.9,3-25.4.2-1.8.6-3.5.3-5.3Z"/>
        <path class="cls-2" d="M27.8,49.2c.2,1.1,1.1,1.6,1.9,1.1.6-.4.7-1,.5-1.6-.7-3.6-.2-7,1.5-10.2,5-9.6,17.1-9.4,23.1-3.9,1,.9,1.7,1,2.3.3.6-.7.4-1.3-.7-2.2-3.4-3-7.4-4.3-11.9-4.4-2.2,0-4.4.3-6.5,1.2-6.3,2.6-9.5,7.5-10.6,14.1-.3,1.9-.2,3.8.2,5.6Z"/>
        <path class="cls-2" d="M36.3,46c-.3,0-.6-.2-.8-.2-.7,0-1.1.3-1.3.9-.2.7.2,1.3,1.1,1.6,2.6.9,5.3,1.4,8.1,1.6,4.7.4,9.3,0,13.6-2.2,1-.5,1-.5,1.5.5,1,2,2.4,3.8,4.5,4.8.7.4,1.4.2,1.8-.4.3-.6.2-1.3-.5-1.7-2.3-1.2-3.5-3.3-4.3-5.6-.4-1.2-1.2-1.5-2.2-.8-1.6,1-3.4,1.8-5.2,2.3-5.4,1.4-10.8.9-16.1-.8Z"/>
        <path class="cls-2" d="M73.1,26.6c3-.7,6-1.5,8.9-2.2,1.3-.3,1.6-1.4.6-2.3-.8-.8-1.6-1.6-2.4-2.4-.5-.4-.4-.6.2-.7,2.1-.5,4.1-1,6.2-1.5.9-.2,1.4-.9,1.2-1.6-.2-.8-.9-1.1-1.8-.8-2.9.7-5.9,1.5-8.8,2.2-1.4.3-1.7,1.4-.7,2.4.9.9,1.9,1.8,3,2.9-2.6.6-4.8,1.2-7.1,1.8-.9.2-1.3.8-1.1,1.5.2.7.8,1.1,1.7.9Z"/>
        <path class="cls-2" d="M13.1,17.1c.3.2.6.3.9.3,2,.5,4,1,6,1.5.5.1.6.3.2.7-.9.8-1.7,1.7-2.6,2.6-.8.8-.5,1.8.6,2.2.4.1.8.2,1.2.3,2.6.7,5.3,1.3,7.9,2,.8.2,1.5-.1,1.7-.8.2-.8-.2-1.3-1.1-1.6-.4-.1-.8-.2-1.2-.3-1.9-.5-3.8-1-5.9-1.5,1.1-1.1,2.1-1.9,3-2.9,1-1,.7-2.1-.7-2.4-1.7-.4-3.4-.9-5.2-1.3-1.3-.3-2.5-.6-3.8-.9-.7-.2-1.2,0-1.5.7-.3.6,0,1.1.4,1.5Z"/>
        <path class="cls-2" d="M47.4,11.8c1.3,0,2.5,0,3.9,0-.2.4-.3.6-.5.9-1.1,1.8-2.1,3.5-3.2,5.3-.5.9-.4,1.6.3,2,.6.4,1.4.2,1.8-.6,1.6-2.7,3.2-5.3,4.8-8,.6-1,0-2-1.1-2-1.2,0-2.3,0-3.5,0-.6,0-.7-.1-.4-.7,1.1-1.9,2.3-3.7,3.4-5.6.6-.9,0-2-1-2-.6,0-1,.4-1.3.9-1.5,2.5-3,5.1-4.6,7.6-.3.5-.6,1.1-.2,1.7.3.6.9.6,1.5.6Z"/>
        <path class="cls-2" d="M61.2,32c.7.2,1.5.5,2.1.9,3.1,1.8,4.6,4.7,5.5,8.1.7,2.4.7,4.8.3,7.3-.2,1.1.2,1.7,1,1.8.8.1,1.3-.4,1.5-1.4.2-1.1.3-2.2.3-3.6,0-3.1-.8-6.2-2.5-9.2-1.7-3-4.2-5.2-7.5-6.2-.9-.3-1.6,0-1.8.7-.2.8.1,1.4,1.1,1.7Z"/>
        <path class="cls-2" d="M98.5,100.1c-.7-2.4-1.4-4.8-2.1-7.1-3.1-10.5-6.1-21-9.2-31.6-.2-.5-.2-1-.2-1.6,0-3.9,0-7.9,0-11.8,0-2.9-1.2-5.3-3.6-6.9-2-1.4-4-2.9-6.1-4.3-.8-.6-1.5-.6-2,0-.5.7-.3,1.4.5,2,2,1.4,4,2.9,6,4.3,1.8,1.2,2.6,2.9,2.6,5,0,3.8,0,7.7,0,11.5,0,1.9.6,3.6,1.1,5.3,3.5,11.9,6.9,23.8,10.4,35.8.2.7.5,1.2,1.2,1.2,1,0,1.5-.8,1.3-1.7Z"/>
        <path class="cls-2" d="M82.4,89.7c-1.1-8.9-2.1-17.7-3.2-26.6-.1-1.1-.3-2.2-.4-3.3-.2-1.2.2-2.3.3-3.4.3-2.2.6-4.4.9-6.6.2-1.6-.2-3-1.4-4.1-.7-.6-1.4-.7-1.9-.1-.5.5-.5,1.2.2,1.9.6.6.8,1.3.7,2.1-.4,2.8-.8,5.5-1.2,8.3-.3,1.8.1,3.5.3,5.3,1,8.5,2,16.9,3,25.4.5,4,1,7.9,1.4,11.9.1.9.6,1.4,1.4,1.3.7,0,1.1-.6,1.1-1.4-.4-3.6-.9-7.1-1.3-10.7Z"/>
      </g>
    </g>
  </g>
</svg>